<?xml version="1.0" standalone="no"?>
<!DOCTYPE svg PUBLIC "-//W3C//DTD SVG 20010904//EN"
 "http://www.w3.org/TR/2001/REC-SVG-20010904/DTD/svg10.dtd">
<svg version="1.0" xmlns="http://www.w3.org/2000/svg"
 width="200.000000pt" height="200.000000pt" viewBox="0 0 200.000000 200.000000"
 preserveAspectRatio="xMidYMid meet">

<g transform="translate(0.000000,200.000000) scale(0.100000,-0.100000)"
fill="#000000" stroke="none">
<path d="M730 1536 l-265 -154 -3 -126 c-1 -69 0 -126 4 -126 3 0 123 68 265
151 l260 151 92 -53 c51 -29 171 -99 267 -156 l175 -102 3 126 c1 70 -1 130
-6 135 -8 8 -521 308 -525 308 -1 0 -121 -70 -267 -154z"/>
<path d="M727 1052 l-267 -156 2 -176 3 -175 108 -3 107 -3 0 115 0 115 48 27
c26 15 68 40 93 56 25 15 49 28 52 28 4 0 7 -125 7 -279 0 -257 1 -279 18
-283 9 -2 61 -5 114 -7 l98 -2 2 284 3 285 90 -52 90 -52 5 -115 5 -114 113
-3 112 -3 -2 181 -3 181 -250 145 c-137 80 -257 149 -265 154 -10 5 -97 -40
-283 -148z"/>
</g>
</svg>
